<?xml version="1.0" ?>
<!-- Uploaded to: SVG Repo, www.svgrepo.com, Generator: SVG Repo Mixer Tools -->
<svg fill="#000000" width="800px" height="800px" viewBox="0 0 24 24" xmlns="http://www.w3.org/2000/svg">
<title/>
<g id="stamp">
<path d="M8.5,5h-3a.5.5,0,0,0,0,1h3a.5.5,0,0,0,0-1Z"/>
<path d="M8.5,8h-3a.5.5,0,0,0,0,1h3a.5.5,0,0,0,0-1Z"/>
<path d="M8.5,11h-3a.5.5,0,0,0,0,1h3a.5.5,0,0,0,0-1Z"/>
<path d="M18,16H17a3,3,0,0,1,.78-1.91C19,13.18,20,12.12,20,10.5A4.51,4.51,0,0,0,15.73,6L11.85,2.15A.48.48,0,0,0,11.62,2H3.5A1.5,1.5,0,0,0,2,3.5v17A1.5,1.5,0,0,0,3.5,22h11A1.5,1.5,0,0,0,16,20.5V20h3.5a.5.5,0,0,0,.5-.5V18A2,2,0,0,0,18,16Zm1-5.5a3.81,3.81,0,0,1-1.81,2.81A3.93,3.93,0,0,0,16,16H15a3.93,3.93,0,0,0-1.16-2.69A3.81,3.81,0,0,1,12,10.5a3.5,3.5,0,0,1,7,0ZM14.29,6H12V3.71ZM15,20.5a.5.5,0,0,1-.5.5H3.5a.5.5,0,0,1-.5-.5V3.5A.5.5,0,0,1,3.5,3H11V6.5a.5.5,0,0,0,.5.5h1.21A4.46,4.46,0,0,0,11,10.5c0,1.62,1.05,2.68,2.19,3.59A3.09,3.09,0,0,1,14,16H13a2,2,0,0,0-2,2v1.5a.5.5,0,0,0,.5.5H15ZM19,19H12V18a1,1,0,0,1,1-1h5a1,1,0,0,1,1,1Z"/>
<path d="M7,14a2,2,0,1,0,2,2A2,2,0,0,0,7,14Zm0,3a1,1,0,1,1,1-1A1,1,0,0,1,7,17Z"/>
</g>
</svg>